<svg xmlns="http://www.w3.org/2000/svg" width="28" height="32" viewBox="-0.1 -0.269 28 32"><path fill="#EEA0A0" d="M9.34 15.54c.212-.387.395-1.276.432-2.188.048-1.135-.032-2.376.542-3.555.317-.65.852-1.28 1.387-1.452 2.17-.693 3.034.303 3.034.303s.96-.08 1.69.65c.63.63.658 2.6.76 4.162.057.895.18 1.652.345 1.95.452.812.94 1.104.94 1.104s-.617.52-1.31.67c-.694.152-1.82.262-1.82.262l-.044.89-1.796 4.72-1.842-4.722v-.91s-1.365-.044-1.863-.217c-.5-.174-1.213-.737-1.213-.737s.28-.064.758-.93z"/><path fill="#EEA0A0" d="M16.057 18.768s2.644.65 3.4 1.45.5 2.3.5 2.3-.11.56-.736.605c-.628.043-11.55 0-11.55 0S7 22.906 7 22.32v-.715s.146-.96.585-1.45c.563-.63 3.294-1.345 3.294-1.345l-1.454 1.732h1.733l2.34 2.514 2.318-2.535h1.732l-1.493-1.752z"/></svg>