<svg xmlns="http://www.w3.org/2000/svg" width="30" height="31" viewBox="-0.173 -0.64 30 31"><path fill="#9DD6F1" d="M11.886 9.98S12.426 8 15.036 8c2.836 0 3.15 2.317 3.15 2.317v2.408s.4.276.313.934c-.067.524-.558.774-.558.774s-.187.793-.39 1.147c-.2.356-.74.96-.74.96v.476s.825.896 1.72 1.4c.896.506 3.68 1.687 3.68 1.687s.286.102.286.422v2.01s-.035.47-.457.47H7.937s-.436-.1-.436-.472v-2.076s.1-.27.287-.354c.098-.045 2.16-.88 3.56-1.688 1.228-.707 1.822-1.4 1.822-1.4v-.54s-.446-.526-.67-.904c-.226-.376-.46-1.153-.46-1.153s-.423-.27-.49-.793c-.07-.523.27-.945.27-.945l.016-2.21.05-.49z"/></svg>